<svg xmlns="http://www.w3.org/2000/svg" xmlns:xlink="http://www.w3.org/1999/xlink" width="507"
  height="350" viewBox="0 0 507 350">
  <defs>
    <clipPath id="clip-path">
      <path id="Mask" d="M0,0H507a0,0,0,0,1,0,0V285a8,8,0,0,1-8,8H8a8,8,0,0,1-8-8V0A0,0,0,0,1,0,0Z"
        transform="translate(-0.243 0.31)" fill="#fff" opacity="0" />
    </clipPath>
  </defs>
  <g id="dashboard-03" transform="translate(-8497.757 -7675)">
    <g id="Group_29" data-name="Group 29" transform="translate(8498 7675)">
      <rect id="Rectangle_67" data-name="Rectangle 67" width="507" height="350" rx="8"
        transform="translate(-0.243 0)" fill="#17161e" />
      <path id="Rectangle_68" data-name="Rectangle 68"
        d="M8,0H499a8,8,0,0,1,8,8V23a0,0,0,0,1,0,0H0a0,0,0,0,1,0,0V8A8,8,0,0,1,8,0Z"
        transform="translate(-0.243 0)" fill="#201e2b" />
      <circle id="Ellipse_8" data-name="Ellipse 8" cx="3" cy="3" r="3"
        transform="translate(24.757 10)" fill="#4c4861" />
      <circle id="Ellipse_9" data-name="Ellipse 9" cx="3" cy="3" r="3"
        transform="translate(34.757 10)" fill="#4c4861" />
      <circle id="Ellipse_10" data-name="Ellipse 10" cx="3" cy="3" r="3"
        transform="translate(44.757 10)" fill="#4c4861" />
    </g>
    <g id="Shape_Shape_Mask" data-name="Shape + Shape Mask" transform="translate(8498 7731.69)">
      <rect id="Mask-2" data-name="Mask" width="507" height="293" transform="translate(-0.243 0.31)"
        fill="#fff" opacity="0" />
      <g id="Shape_Shape_Mask-2" data-name="Shape + Shape Mask" transform="translate(0 0)"
        clip-path="url(#clip-path)">
        <path id="Shape"
          d="M46.3,138.826c21.9,0,22.242-23.62,44.058-18.56,22.4,5.2,24.733,15.565,44.8,8.166,22.153-8.166,23.647-29.7,45.551-29.7s27.869,20.592,44.8,11.878C246.623,99.756,248.415,0,270.32,0s22.153,70.526,44.8,82.4c19.374,10.16,22.9-57.906,44.8-66.815,20.273-8.246,22.651,84.632,44.8,84.632s21.407-92.8,44.058-92.8S475.424,63.1,494.341,80.177c16.218,14.638,20.74,23.406,44.8,23.014,21.766-.354,31.741-9.227,44.8-26.726,12.5-16.746,21.407-39.346,44.058-39.346s27.629,32.665,45.551,48.255c16.859,14.666,23.4,34.15,44.8,34.15-.007.6,0,74.238,0,74.238H0s.125-25.241,0-25.241C21.9,168.521,24.394,138.826,46.3,138.826Z"
          transform="translate(-191.638 113.152)" fill="rgba(139,223,240,0.05)" stroke="#8bdff0"
          stroke-miterlimit="10" stroke-width="0.6" />
      </g>
    </g>
    <text id="_8_932.40" data-name="$8,932.40" transform="translate(8836.757 7741)" fill="#fff"
      font-size="29" font-family="Inter-Regular, Inter">
      <tspan x="0" y="0">$8,932.40</tspan>
    </text>
    <g id="Group_34" data-name="Group 34" transform="translate(8526.345 7711.972)">
      <rect id="Rectangle_71" data-name="Rectangle 71" width="117" height="37" rx="8"
        transform="translate(0.412 0.028)" fill="#201e2b" />
      <text id="Flowbase" transform="translate(14.412 23.028)" fill="#721eff" font-size="17"
        font-family="Inter-Regular, Inter" letter-spacing="-0.02em">
        <tspan x="0" y="0">Flowbase</tspan>
      </text>
      <path id="chevron-white" d="M6,9l2.877,2.877L11.752,9" transform="translate(93.672 9.184)"
        fill="none" stroke="#721eff" stroke-linecap="round" stroke-linejoin="round" stroke-width="1" />
    </g>
  </g>
</svg>